<svg width="14" height="14" viewBox="0 0 14 14" fill="none" xmlns="http://www.w3.org/2000/svg">
<path d="M4.66667 3.5H12.25" stroke="#374151" stroke-width="1.5" stroke-linecap="round" stroke-linejoin="round"/>
<path d="M4.66667 7H12.25" stroke="#374151" stroke-width="1.5" stroke-linecap="round" stroke-linejoin="round"/>
<path d="M4.66667 10.5H12.25" stroke="#374151" stroke-width="1.5" stroke-linecap="round" stroke-linejoin="round"/>
<path d="M1.5 7.54166C1.77614 7.54166 2 7.3178 2 7.04166C2 6.76551 1.77614 6.54166 1.5 6.54166C1.22386 6.54166 1 6.76551 1 7.04166C1 7.3178 1.22386 7.54166 1.5 7.54166Z" stroke="#374151" stroke-linecap="round" stroke-linejoin="round"/>
<path d="M1.5 4C1.77614 4 2 3.77614 2 3.5C2 3.22386 1.77614 3 1.5 3C1.22386 3 1 3.22386 1 3.5C1 3.77614 1.22386 4 1.5 4Z" stroke="#374151" stroke-linecap="round" stroke-linejoin="round"/>
<path d="M1.5 11C1.77614 11 2 10.7761 2 10.5C2 10.2239 1.77614 10 1.5 10C1.22386 10 1 10.2239 1 10.5C1 10.7761 1.22386 11 1.5 11Z" stroke="#374151" stroke-linecap="round" stroke-linejoin="round"/>
</svg>
