<svg width="259" height="256" viewBox="0 0 259 256" fill="none" xmlns="http://www.w3.org/2000/svg">
<mask id="mask0_350_279" style="mask-type:alpha" maskUnits="userSpaceOnUse" x="2" y="0" width="256" height="256">
<circle cx="130" cy="128" r="125" fill="#D9D9D9" stroke="#1F2937" stroke-width="6"/>
</mask>
<g mask="url(#mask0_350_279)">
<mask id="path-2-inside-1_350_279" fill="white">
<path d="M19.1974 153.86C-14.3991 185.389 -14.3991 236.507 19.1974 268.036C51.4729 298.325 100.007 301.929 133.798 274.022L133.798 267.714V261.407V199.515C133.798 199.515 146.434 48.3324 132.319 30C84.8065 30 47.7685 65.441 47.7685 110.03C47.7685 118.571 49.1819 126.901 51.8011 134.628C38.4469 138.314 29.7335 143.972 19.1974 153.86Z"/>
</mask>
<path d="M19.1974 153.86C-14.3991 185.389 -14.3991 236.507 19.1974 268.036C51.4729 298.325 100.007 301.929 133.798 274.022L133.798 267.714V261.407V199.515C133.798 199.515 146.434 48.3324 132.319 30C84.8065 30 47.7685 65.441 47.7685 110.03C47.7685 118.571 49.1819 126.901 51.8011 134.628C38.4469 138.314 29.7335 143.972 19.1974 153.86Z" fill="#4ADE80"/>
<path d="M98.2374 201.455C98.2374 199.798 96.8943 198.455 95.2374 198.455C93.5806 198.455 92.2374 199.798 92.2374 201.455H98.2374ZM65.6134 222.22C63.9565 222.22 62.6134 223.563 62.6134 225.22C62.6134 226.877 63.9565 228.22 65.6134 228.22V222.22ZM133.798 271.022C132.141 271.022 130.798 272.365 130.798 274.022C130.798 275.679 132.141 277.022 133.798 277.022V271.022ZM131.742 201.699C132.948 202.835 134.847 202.777 135.983 201.571C137.118 200.364 137.061 198.465 135.854 197.33L131.742 201.699ZM131.745 263.595C132.953 264.728 134.852 264.668 135.986 263.46C137.119 262.252 137.059 260.353 135.851 259.219L131.745 263.595ZM133.853 277.022C135.51 277.022 136.853 275.679 136.853 274.022C136.853 272.365 135.51 271.022 133.853 271.022V277.022ZM119.782 170.203C119.782 168.546 118.439 167.203 116.782 167.203C115.126 167.203 113.782 168.546 113.782 170.203H119.782ZM106.231 180.5C104.574 180.5 103.231 181.843 103.231 183.5C103.231 185.157 104.574 186.5 106.231 186.5V180.5ZM92.2374 201.455V225.22H98.2374V201.455H92.2374ZM65.6134 228.22H95.2374V222.22H65.6134V228.22ZM114.726 185.685L131.742 201.699L135.854 197.33L118.839 181.315L114.726 185.685ZM135.851 259.219L97.2903 223.032L93.1845 227.407L131.745 263.595L135.851 259.219ZM133.798 277.022H133.853V271.022H133.798V277.022ZM119.782 183.5V170.203H113.782V183.5H119.782ZM106.231 186.5H116.782V180.5H106.231V186.5ZM19.1974 268.036L23.3033 263.661L23.3033 263.661L19.1974 268.036ZM19.1974 153.86L23.3033 158.235L23.3033 158.235L19.1974 153.86ZM51.8011 134.628L53.3975 140.412L57.4836 132.702L51.8011 134.628ZM133.798 274.022L137.619 278.648L139.798 274.022L133.798 274.022ZM132.319 30L137.073 26.3397C135.938 24.8644 134.181 24 132.319 24V30ZM133.798 199.515L127.819 199.015L127.798 199.515H133.798ZM133.798 267.714L127.798 267.714L127.798 267.714L133.798 267.714ZM23.3033 263.661C-7.76777 234.502 -7.76777 187.394 23.3033 158.235L15.0916 149.485C-21.0305 183.384 -21.0305 238.512 15.0916 272.411L23.3033 263.661ZM23.3033 158.235C33.3254 148.83 41.2103 143.776 53.3975 140.412L50.2047 128.845C35.6834 132.853 26.1416 139.115 15.0916 149.485L23.3033 158.235ZM129.977 269.395C98.7343 295.198 53.5898 292.083 23.3033 263.661L15.0916 272.411C49.3559 304.566 101.28 308.659 137.619 278.648L129.977 269.395ZM53.7685 110.03C53.7685 69.0429 87.8246 36 132.319 36V24C81.7885 24 41.7685 61.8392 41.7685 110.03H53.7685ZM57.4836 132.702C55.0733 125.592 53.7685 117.912 53.7685 110.03H41.7685C41.7685 119.23 43.2905 128.211 46.1187 136.555L57.4836 132.702ZM127.798 199.515V261.407H139.798V199.515H127.798ZM127.798 261.407V267.714H139.798V261.407H127.798ZM133.798 199.515C139.777 200.014 139.777 200.013 139.777 200.012C139.777 200.011 139.778 200.009 139.778 200.006C139.778 200.001 139.779 199.994 139.78 199.984C139.781 199.965 139.784 199.937 139.787 199.9C139.793 199.825 139.802 199.715 139.814 199.57C139.838 199.28 139.872 198.851 139.917 198.292C140.007 197.173 140.136 195.532 140.296 193.439C140.615 189.253 141.055 183.257 141.538 176.005C142.505 161.507 143.648 141.969 144.348 121.841C145.047 101.739 145.31 80.931 144.498 63.9343C144.093 55.448 143.413 47.7672 142.35 41.5375C141.818 38.4224 141.171 35.558 140.372 33.081C139.594 30.6746 138.559 28.2691 137.073 26.3397L127.565 33.6603C127.844 34.0225 128.364 34.9464 128.952 36.7686C129.518 38.5203 130.047 40.7838 130.521 43.557C131.468 49.104 132.117 56.242 132.512 64.5069C133.3 81.0129 133.05 101.438 132.355 121.423C131.661 141.382 130.527 160.785 129.565 175.207C129.084 182.415 128.647 188.373 128.331 192.526C128.172 194.603 128.044 196.228 127.956 197.333C127.911 197.885 127.877 198.307 127.854 198.59C127.842 198.732 127.833 198.839 127.828 198.91C127.825 198.946 127.822 198.972 127.821 198.99C127.82 198.998 127.82 199.005 127.819 199.009C127.819 199.011 127.819 199.013 127.819 199.014C127.819 199.015 127.819 199.015 133.798 199.515ZM127.798 267.714L127.798 274.022L139.798 274.022L139.798 267.714L127.798 267.714Z" fill="#4B5563" mask="url(#path-2-inside-1_350_279)"/>
<path d="M130 257.412V146.641V33C152.905 33 206.222 97.0612 206.222 97.0612H163.312L225.984 155.655H181.944L245.745 215.304H206.222L266 270H130.056L130 270L130 263.706V257.412Z" fill="#22C55E"/>
<path d="M130 257.412V263.706M130 270L266 270L206.222 215.304H245.745L181.944 155.655H225.984L163.312 97.0612H206.222C206.222 97.0612 152.905 33 130 33V146.641V263.706M130 270L130.056 270M130 270L130 263.706" stroke="#4B5563" stroke-width="6" stroke-linecap="round" stroke-linejoin="round"/>
</g>
<path d="M130 3V253" stroke="white" stroke-width="6"/>
<path d="M130 153.5C144.083 153.5 155.5 142.083 155.5 128C155.5 113.917 144.083 102.5 130 102.5C115.917 102.5 104.5 113.917 104.5 128C104.5 142.083 115.917 153.5 130 153.5Z" fill="#67E8F9" stroke="white" stroke-width="3"/>
<path fill-rule="evenodd" clip-rule="evenodd" d="M114.01 128.82C113.619 128.345 113.619 127.661 114.01 127.186L120.01 119.895C120.461 119.346 121.271 119.268 121.82 119.719C122.368 120.17 122.447 120.98 121.996 121.529L116.668 128.002L121.995 134.471C122.447 135.019 122.368 135.83 121.82 136.281C121.272 136.732 120.462 136.654 120.01 136.106L114.01 128.82Z" fill="white"/>
<path fill-rule="evenodd" clip-rule="evenodd" d="M145.995 127.18C146.386 127.655 146.386 128.339 145.996 128.814L139.996 136.105C139.544 136.654 138.734 136.732 138.186 136.281C137.638 135.83 137.559 135.02 138.01 134.471L143.338 127.998L138.01 121.529C137.559 120.981 137.637 120.17 138.186 119.719C138.734 119.268 139.544 119.346 139.995 119.894L145.995 127.18Z" fill="white"/>
<path d="M255 128C255 197.036 199.036 253 130 253C60.9644 253 5 197.036 5 128C5 58.9644 60.9644 3 130 3C199.036 3 255 58.9644 255 128Z" stroke="#1F2937" stroke-width="6"/>
</svg>
