<svg width="256" height="256" viewBox="0 0 256 256" fill="none" xmlns="http://www.w3.org/2000/svg">
<mask id="mask0_349_248" style="mask-type:alpha" maskUnits="userSpaceOnUse" x="8" y="8" width="223" height="224">
<path d="M119.5 232C57.9203 232 8 181.856 8 120C8 58.1441 57.9203 8 119.5 8C181.08 8 231 58.1441 231 120C231 150.165 219.128 177.545 199.822 197.682C199.333 198.191 198.84 198.696 198.342 199.196C197.845 199.696 197.342 200.191 196.835 200.682C176.788 220.075 149.53 232 119.5 232Z" fill="white"/>
</mask>
<g mask="url(#mask0_349_248)">
<mask id="path-2-inside-1_349_248" fill="white">
<path d="M20.7476 136.547C-10.3003 165.678 -10.3003 212.909 20.7476 242.041C50.5745 270.026 95.4271 273.356 126.654 247.571L126.654 241.744V235.916V133.348C126.654 133.348 138.331 39.0448 125.288 22.1064C81.3794 22.1064 47.1512 54.8523 47.1512 96.0501C47.1512 103.942 48.4574 111.639 50.8779 118.778C38.5367 122.184 30.4843 127.412 20.7476 136.547Z"/>
</mask>
<path d="M20.7476 136.547C-10.3003 165.678 -10.3003 212.909 20.7476 242.041C50.5745 270.026 95.4271 273.356 126.654 247.571L126.654 241.744V235.916V133.348C126.654 133.348 138.331 39.0448 125.288 22.1064C81.3794 22.1064 47.1512 54.8523 47.1512 96.0501C47.1512 103.942 48.4574 111.639 50.8779 118.778C38.5367 122.184 30.4843 127.412 20.7476 136.547Z" fill="#4ADE80"/>
<path d="M94.019 180.523C94.019 178.866 92.6759 177.523 91.019 177.523C89.3622 177.523 88.019 178.866 88.019 180.523H94.019ZM63.6423 199.481C61.9855 199.481 60.6423 200.824 60.6423 202.481C60.6423 204.137 61.9855 205.481 63.6423 205.481V199.481ZM126.654 244.571C124.997 244.571 123.654 245.915 123.654 247.571C123.654 249.228 124.997 250.571 126.654 250.571V244.571ZM124.598 135.532C125.805 136.668 127.704 136.61 128.839 135.403C129.975 134.197 129.917 132.298 128.71 131.163L124.598 135.532ZM124.602 238.104C125.81 239.237 127.708 239.177 128.842 237.969C129.976 236.76 129.915 234.862 128.707 233.728L124.602 238.104ZM126.705 250.571C128.362 250.571 129.705 249.228 129.705 247.571C129.705 245.915 128.362 244.571 126.705 244.571V250.571ZM113.93 106.265C113.93 104.608 112.586 103.265 110.93 103.265C109.273 103.265 107.93 104.608 107.93 106.265H113.93ZM101.179 115.551C99.522 115.551 98.1788 116.894 98.1788 118.551C98.1788 120.208 99.522 121.551 101.179 121.551V115.551ZM88.019 180.523V202.481H94.019V180.523H88.019ZM63.6423 205.481H91.019V199.481H63.6423V205.481ZM108.874 120.736L124.598 135.532L128.71 131.163L112.985 116.366L108.874 120.736ZM128.707 233.728L93.0717 200.293L88.9663 204.668L124.602 238.104L128.707 233.728ZM126.654 250.571H126.705V244.571H126.654V250.571ZM113.93 118.551V106.265H107.93V118.551H113.93ZM101.179 121.551H110.93V115.551H101.179V121.551ZM20.7476 242.041L16.6421 246.416L16.6421 246.416L20.7476 242.041ZM20.7476 136.547L24.853 140.923L24.853 140.923L20.7476 136.547ZM50.8779 118.778L52.474 124.562L56.5602 116.852L50.8779 118.778ZM126.654 247.571L130.475 252.198L132.654 247.571L126.654 247.571ZM125.288 22.1064L130.042 18.4457C128.906 16.9707 127.149 16.1064 125.288 16.1064V22.1064ZM126.654 133.348L120.7 132.61L120.654 133.348H126.654ZM126.654 241.744L120.654 241.744L120.654 241.744L126.654 241.744ZM24.853 237.665C-3.66878 210.904 -3.66878 167.684 24.853 140.923L16.6421 132.172C-16.9318 163.673 -16.9318 214.915 16.6421 246.416L24.853 237.665ZM24.853 140.923C34.0757 132.269 41.2997 127.646 52.474 124.562L49.2818 112.994C35.7737 116.722 26.8929 122.554 16.6421 132.172L24.853 140.923ZM122.834 242.945C94.1543 266.626 52.691 263.785 24.853 237.665L16.6421 246.416C48.458 276.268 96.7 280.086 130.475 252.198L122.834 242.945ZM53.1512 96.0501C53.1512 58.4553 84.3963 28.1064 125.288 28.1064V16.1064C78.3626 16.1064 41.1512 51.2494 41.1512 96.0501H53.1512ZM56.5602 116.852C54.3487 110.329 53.1512 103.283 53.1512 96.0501H41.1512C41.1512 104.601 42.566 112.949 45.1956 120.705L56.5602 116.852ZM120.654 133.348V235.916H132.654V133.348H120.654ZM120.654 235.916V241.744H132.654V235.916H120.654ZM126.654 133.348C132.609 134.085 132.609 134.084 132.609 134.083C132.609 134.082 132.609 134.081 132.61 134.079C132.61 134.075 132.611 134.07 132.611 134.064C132.613 134.051 132.615 134.033 132.618 134.009C132.624 133.961 132.633 133.891 132.644 133.799C132.666 133.615 132.699 133.343 132.741 132.991C132.824 132.285 132.945 131.252 133.093 129.933C133.39 127.297 133.798 123.518 134.246 118.932C135.143 109.768 136.204 97.3509 136.855 84.3795C137.504 71.4398 137.753 57.7996 136.991 46.2392C136.61 40.4644 135.969 35.0611 134.95 30.4536C133.964 25.9979 132.489 21.6245 130.042 18.4457L120.534 25.7672C121.347 26.8229 122.361 29.1018 123.233 33.0454C124.072 36.8372 124.658 41.5802 125.017 47.0283C125.734 57.9136 125.51 71.025 124.87 83.7783C124.232 96.4999 123.189 108.717 122.304 117.764C121.861 122.284 121.459 126.005 121.168 128.592C121.023 129.885 120.905 130.895 120.824 131.578C120.783 131.92 120.752 132.181 120.731 132.354C120.72 132.441 120.712 132.506 120.707 132.549C120.705 132.571 120.703 132.587 120.701 132.597C120.701 132.602 120.7 132.606 120.7 132.608C120.7 132.609 120.7 132.61 120.7 132.61C120.7 132.61 120.7 132.61 126.654 133.348ZM120.654 241.744L120.654 247.571L132.654 247.571L132.654 241.744L120.654 241.744Z" fill="#4B5563" mask="url(#path-2-inside-1_349_248)"/>
<path d="M123.462 232.524V130.595V25.1064C144.514 25.1064 193.519 84.9737 193.519 84.9737H154.079L211.682 138.89H171.204L229.845 193.777H193.519L248.462 244.106H123.513L123.462 244.106L123.462 238.315V232.524Z" fill="#22C55E"/>
<path d="M123.462 232.524V238.315M123.462 244.106L248.462 244.106L193.519 193.777H229.845L171.204 138.89H211.682L154.079 84.9737H193.519C193.519 84.9737 144.514 25.1064 123.462 25.1064V130.595V238.315M123.462 244.106L123.513 244.106M123.462 244.106L123.462 238.315" stroke="#4B5563" stroke-width="6" stroke-linecap="round" stroke-linejoin="round"/>
</g>
<path d="M235.108 235.108L237.94 232.284L237.936 232.279L235.108 235.108ZM250.432 250.478L253.255 253.311L253.265 253.301L250.432 250.478ZM248.904 252L246.075 254.828C247.636 256.389 250.164 256.391 251.727 254.833L248.904 252ZM252 248.904L254.833 251.728C256.391 250.165 256.389 247.636 254.828 246.075L252 248.904ZM119.589 231.179C57.9603 231.179 8 181.218 8 119.589H0C0 185.637 53.542 239.179 119.589 239.179V231.179ZM8 119.589C8 57.9603 57.9603 8 119.589 8V0C53.542 0 0 53.542 0 119.589H8ZM119.589 8C181.218 8 231.179 57.9603 231.179 119.589H239.179C239.179 53.542 185.637 0 119.589 0V8ZM231.179 119.589C231.179 149.645 219.301 176.919 199.976 196.986L205.738 202.535C226.441 181.037 239.179 151.797 239.179 119.589H231.179ZM199.976 196.986C199.487 197.494 198.993 197.997 198.495 198.495L204.152 204.152C204.686 203.618 205.214 203.079 205.738 202.535L199.976 196.986ZM198.495 198.495C197.997 198.993 197.494 199.487 196.986 199.976L202.535 205.738C203.079 205.214 203.618 204.686 204.152 204.152L198.495 198.495ZM196.986 199.976C176.919 219.301 149.645 231.179 119.589 231.179V239.179C151.797 239.179 181.037 226.441 202.535 205.738L196.986 199.976ZM204.178 204.125L205.712 202.562L200.002 196.959L198.468 198.522L204.178 204.125ZM198.495 204.152L232.279 237.936L237.936 232.279L204.152 198.495L198.495 204.152ZM232.275 237.932L247.599 253.302L253.264 247.653L237.94 232.284L232.275 237.932ZM196.932 205.685L246.075 254.828L251.732 249.172L202.589 200.028L196.932 205.685ZM200.028 202.589L249.172 251.732L254.828 246.075L205.685 196.932L200.028 202.589ZM249.167 246.08L247.598 247.654L253.265 253.301L254.833 251.728L249.167 246.08ZM247.608 247.644L246.08 249.167L251.727 254.833L253.255 253.311L247.608 247.644Z" fill="#1F2937"/>
</svg>
