<svg width="14" height="14" viewBox="0 0 14 14" fill="none" xmlns="http://www.w3.org/2000/svg">
<g clip-path="url(#clip0_1_1411)">
<path d="M7 8.75C7.9665 8.75 8.75 7.9665 8.75 7C8.75 6.0335 7.9665 5.25 7 5.25C6.0335 5.25 5.25 6.0335 5.25 7C5.25 7.9665 6.0335 8.75 7 8.75Z" stroke="#374151" stroke-width="1.5" stroke-linecap="round" stroke-linejoin="round"/>
<path d="M11.3167 8.74999C11.239 8.92594 11.2159 9.12111 11.2502 9.31034C11.2845 9.49957 11.3747 9.67418 11.5092 9.81166L11.5442 9.84666C11.6526 9.95501 11.7387 10.0837 11.7974 10.2253C11.8561 10.3669 11.8863 10.5188 11.8863 10.6721C11.8863 10.8254 11.8561 10.9772 11.7974 11.1188C11.7387 11.2605 11.6526 11.3891 11.5442 11.4975C11.4358 11.606 11.3072 11.692 11.1655 11.7507C11.0239 11.8094 10.8721 11.8397 10.7188 11.8397C10.5654 11.8397 10.4136 11.8094 10.272 11.7507C10.1304 11.692 10.0017 11.606 9.89334 11.4975L9.85834 11.4625C9.72086 11.328 9.54625 11.2378 9.35702 11.2035C9.16779 11.1692 8.97262 11.1923 8.79668 11.27C8.62414 11.3439 8.477 11.4667 8.37336 11.6232C8.26971 11.7797 8.21409 11.9631 8.21334 12.1508V12.25C8.21334 12.5594 8.09043 12.8562 7.87163 13.075C7.65284 13.2937 7.3561 13.4167 7.04668 13.4167C6.73726 13.4167 6.44051 13.2937 6.22172 13.075C6.00293 12.8562 5.88001 12.5594 5.88001 12.25V12.1975C5.87549 12.0044 5.813 11.8172 5.70064 11.6601C5.58829 11.503 5.43127 11.3833 5.25001 11.3167C5.07407 11.239 4.8789 11.2158 4.68967 11.2502C4.50044 11.2845 4.32582 11.3747 4.18834 11.5092L4.15334 11.5442C4.04499 11.6526 3.91632 11.7387 3.77469 11.7974C3.63306 11.8561 3.48124 11.8863 3.32793 11.8863C3.17461 11.8863 3.02279 11.8561 2.88116 11.7974C2.73953 11.7387 2.61086 11.6526 2.50251 11.5442C2.39404 11.4358 2.30799 11.3071 2.24927 11.1655C2.19056 11.0239 2.16034 10.8721 2.16034 10.7187C2.16034 10.5654 2.19056 10.4136 2.24927 10.272C2.30799 10.1303 2.39404 10.0017 2.50251 9.89333L2.53751 9.85833C2.67199 9.72085 2.7622 9.54624 2.79651 9.357C2.83082 9.16777 2.80766 8.9726 2.73001 8.79666C2.65607 8.62413 2.53328 8.47698 2.37678 8.37334C2.22028 8.2697 2.03689 8.21408 1.84918 8.21333H1.75001C1.44059 8.21333 1.14384 8.09041 0.925052 7.87162C0.70626 7.65283 0.583344 7.35608 0.583344 7.04666C0.583344 6.73724 0.70626 6.4405 0.925052 6.2217C1.14384 6.00291 1.44059 5.87999 1.75001 5.87999H1.80251C1.99559 5.87548 2.18285 5.81298 2.33993 5.70063C2.49702 5.58827 2.61668 5.43126 2.68334 5.24999C2.76099 5.07405 2.78416 4.87888 2.74985 4.68965C2.71554 4.50042 2.62532 4.32581 2.49084 4.18833L2.45584 4.15333C2.34737 4.04498 2.26132 3.91631 2.20261 3.77468C2.1439 3.63304 2.11368 3.48123 2.11368 3.32791C2.11368 3.17459 2.1439 3.02278 2.20261 2.88115C2.26132 2.73952 2.34737 2.61085 2.45584 2.50249C2.5642 2.39402 2.69287 2.30797 2.8345 2.24926C2.97613 2.19055 3.12794 2.16033 3.28126 2.16033C3.43458 2.16033 3.58639 2.19055 3.72802 2.24926C3.86965 2.30797 3.99832 2.39402 4.10668 2.50249L4.14168 2.53749C4.27916 2.67197 4.45377 2.76219 4.643 2.7965C4.83223 2.83081 5.0274 2.80765 5.20334 2.72999H5.25001C5.42254 2.65605 5.56969 2.53327 5.67333 2.37677C5.77697 2.22026 5.83259 2.03687 5.83334 1.84916V1.74999C5.83334 1.44058 5.95626 1.14383 6.17505 0.925037C6.39384 0.706245 6.69059 0.583328 7.00001 0.583328C7.30943 0.583328 7.60618 0.706245 7.82497 0.925037C8.04376 1.14383 8.16668 1.44058 8.16668 1.74999V1.80249C8.16743 1.9902 8.22305 2.1736 8.32669 2.3301C8.43033 2.4866 8.57748 2.60938 8.75001 2.68333C8.92595 2.76098 9.12112 2.78414 9.31035 2.74983C9.49958 2.71552 9.6742 2.62531 9.81168 2.49083L9.84668 2.45583C9.95503 2.34736 10.0837 2.2613 10.2253 2.20259C10.367 2.14388 10.5188 2.11366 10.6721 2.11366C10.8254 2.11366 10.9772 2.14388 11.1189 2.20259C11.2605 2.2613 11.3892 2.34736 11.4975 2.45583C11.606 2.56418 11.692 2.69285 11.7507 2.83448C11.8095 2.97611 11.8397 3.12793 11.8397 3.28124C11.8397 3.43456 11.8095 3.58638 11.7507 3.72801C11.692 3.86964 11.606 3.99831 11.4975 4.10666L11.4625 4.14166C11.328 4.27914 11.2378 4.45375 11.2035 4.64298C11.1692 4.83222 11.1924 5.02739 11.27 5.20333V5.24999C11.344 5.42253 11.4667 5.56967 11.6232 5.67332C11.7797 5.77696 11.9631 5.83258 12.1508 5.83333H12.25C12.5594 5.83333 12.8562 5.95624 13.075 6.17504C13.2938 6.39383 13.4167 6.69058 13.4167 6.99999C13.4167 7.30941 13.2938 7.60616 13.075 7.82495C12.8562 8.04374 12.5594 8.16666 12.25 8.16666H12.1975C12.0098 8.16741 11.8264 8.22303 11.6699 8.32667C11.5134 8.43032 11.3906 8.57746 11.3167 8.74999V8.74999Z" stroke="#374151" stroke-width="1.5" stroke-linecap="round" stroke-linejoin="round"/>
</g>
<defs>
<clipPath id="clip0_1_1411">
<rect width="14" height="14" fill="white"/>
</clipPath>
</defs>
</svg>
