<?xml version="1.0" ?>
<svg>
	<path d="M 99.572 346.82 L 108.204 338.867 L 90.435 364.817 L 56.86 364.818 L 39.711 394.715 L 15.775 414.823 L 22.183 411.435 L 30.078 418.857 L 33.919 408.596 L 57.829 403.091 L 57.641 397.105 L 72.665 407.502 L 78.125 387.51 L 94.809 385.084 L 106.259 394.127 L 137.867 382.157 L 133.717 376.958 L 152.544 385.248 L 201.792 376.963 L 214.828 356.345 L 185.232 353.213 L 210.047 335.646 L 206.75 327.354 L 218.559 324.956 L 223.148 300.187 L 209.998 286.205 L 190.378 284.351 L 185.229 293.612 L 174.814 288.175 L 184.441 274.196 L 172.425 230.831 L 158.863 213.42 L 141.17 206.502 L 129.146 159.635 L 102.632 138.965 L 96.587 118.647 L 112.755 95.182 L 123.618 57.082 L 79.663 51.367 L 57.802 63.405 L 62.963 53.18 L 51.303 58.95 L 69.371 44.457 L 52.313 41.703 L 62.972 43.816 L 87.445 17.403 L 90.525 2.967 L 49.448 13.143 L 50.002 6.959 L 42.058 13.226 L 44.867 7.481 L 35.735 3.608 L 30.587 18.217 L 37.255 25.148 L 24.496 23.122 L 28.67 29.115 L 22.966 32.461 L 33.433 45.636 L 25.211 39.885 L 29.236 44.924 L 12.83 45.637 L 21.136 60.82 L 12.052 58.86 L 12.927 70.469 L 22.934 67.021 L 15.107 73.395 L 23.139 72.308 L 16.456 80.604 L 24.26 83.245 L 15.487 82.545 L 20.84 88.835 L 12.258 88.837 L 14.347 99.643 L 1.10699 103.62 L 20.276 104.181 L 7.35199 106.874 L 16.649 114.22 L 32.073 97.944 L 28.775 103.113 L 35.528 103.146 L 26.564 105.915 L 22.742 115.6 L 33.606 110.779 L 18.76 126.196 L 26.853 146.04 L 45.793 162.868 L 35.046 192.623 L 30.657 187.82 L 36.7 204.68 L 39.333 194.719 L 52.598 203.703 L 52.026 192.737 L 62.909 199.455 L 75.183 188.465 L 89.768 189.11 L 73.407 211.733 L 87.011 233.142 L 90.061 225.436 L 96.732 230.227 L 89.437 262.739 L 66.616 267.27 L 42.215 291.738 L 61.454 286.674 L 59.363 313.671 L 26.746 334.792 L 30.313 342.65 L 40.29 337.865 L 32.071 343.137 L 37.044 346.808 L 53.068 338.165 L 61.263 343.245 L 55.162 348.641 L 67.636 345.685 L 76.051 355.656 L 99.572 346.82"/>
	<path d="M 147.818 382.084 L 147.818 382.084"/>
	<path d="M 200.473 355.691 L 194.948 355.045 L 200.473 355.691"/>
</svg>
